<?xml version="1.0" standalone="no"?><!DOCTYPE svg PUBLIC "-//W3C//DTD SVG 1.1//EN" "http://www.w3.org/Graphics/SVG/1.1/DTD/svg11.dtd"><svg t="1725795168273" class="icon" viewBox="0 0 1024 1024" version="1.1" xmlns="http://www.w3.org/2000/svg" p-id="2544" xmlns:xlink="http://www.w3.org/1999/xlink" width="200" height="200"><path d="M812.909714 0H211.090286A211.382857 211.382857 0 0 0 0 211.090286v601.819428A211.382857 211.382857 0 0 0 211.090286 1024h601.819428c116.297143 0 211.821714-94.793143 211.090286-211.090286V211.090286A211.236571 211.236571 0 0 0 812.909714 0zM344.283429 921.234286H150.016a50.468571 50.468571 0 0 1-49.737143-49.737143V677.376a48.64 48.64 0 0 1 83.382857-34.450286c8.777143 8.777143 14.482286 21.650286 14.482286 34.450286v75.337143l175.835429-175.762286a49.444571 49.444571 0 0 1 69.851428 69.851429l-175.835428 175.835428h75.337142c27.282286 0 49.005714 21.650286 49.005715 48.859429 0 27.282286-20.772571 49.737143-48.054857 49.737143zM676.717714 91.428571h194.194286a50.468571 50.468571 0 0 1 49.737143 49.737143v194.121143a48.64 48.64 0 0 1-83.456 34.450286 50.102857 50.102857 0 0 1-14.482286-34.450286v-75.337143L646.875429 435.931429a49.444571 49.444571 0 0 1-69.778286 0 49.444571 49.444571 0 0 1 0-69.851429L752.859429 190.171429h-75.337143a48.64 48.64 0 0 1-49.005715-49.005715c0-27.136 20.845714-49.737143 48.274286-49.737143z" p-id="2545" fill="#e6e6e6"></path></svg>